<?xml version="1.0" encoding="utf-8"?>
<!-- Generator: Adobe Illustrator 27.5.0, SVG Export Plug-In . SVG Version: 6.00 Build 0)  -->
<svg version="1.1" id="Layer_1" xmlns="http://www.w3.org/2000/svg" xmlns:xlink="http://www.w3.org/1999/xlink" x="0px" y="0px"
	 viewBox="0 0 24 24" style="enable-background:new 0 0 24 24;" xml:space="preserve">
<g transform="translate(-1242.999 -1005)">
	<path d="M1264,1027.5c0.8,0,1.5-0.7,1.5-1.5v-12c0-0.8-0.7-1.5-1.5-1.5h-4.5v-4.5c0-0.8-0.7-1.5-1.5-1.5h-12
		c-0.8,0-1.5,0.7-1.5,1.5v12c0,0.8,0.7,1.5,1.5,1.5h4.5v4.5c0,0.8,0.7,1.5,1.5,1.5H1264 M1264,1029h-12c-1.7,0-3-1.3-3-3v-3h-3
		c-1.7,0-3-1.3-3-3v-12c0-1.7,1.3-3,3-3h12c1.7,0,3,1.3,3,3v3h3c1.7,0,3,1.3,3,3v12C1267,1027.7,1265.7,1029,1264,1029z"/>
	<path d="M1252,1012.5c-0.8,0-1.5,0.7-1.5,1.5v12c0,0.8,0.7,1.5,1.5,1.5h12c0.8,0,1.5-0.7,1.5-1.5v-12c0-0.8-0.7-1.5-1.5-1.5H1252
		 M1252,1011h12c1.7,0,3,1.3,3,3v12c0,1.7-1.3,3-3,3h-12c-1.7,0-3-1.3-3-3v-12C1249,1012.3,1250.3,1011,1252,1011z"/>
</g>
</svg>
