<svg xmlns="http://www.w3.org/2000/svg" width="24" height="24" viewBox="0 0 24 24"><g transform="translate(-1708 140)"><g transform="translate(1709.972 -135.762)"><path d="M16.989,1.3A16.334,16.334,0,0,0,12.851,0a12.143,12.143,0,0,0-.53,1.1,15.192,15.192,0,0,0-4.586,0A11.763,11.763,0,0,0,7.2,0,16.28,16.28,0,0,0,3.059,1.3,17.353,17.353,0,0,0,.085,12.923a16.543,16.543,0,0,0,5.075,2.6,12.623,12.623,0,0,0,1.087-1.79A10.684,10.684,0,0,1,4.535,12.9c.144-.106.284-.218.42-.332a11.694,11.694,0,0,0,10.146,0c.137.114.278.226.42.332a10.655,10.655,0,0,1-1.715.835,12.561,12.561,0,0,0,1.087,1.79,16.509,16.509,0,0,0,5.078-2.6A17.335,17.335,0,0,0,16.989,1.3ZM6.7,10.583a1.947,1.947,0,0,1-1.8-2.051A1.936,1.936,0,0,1,6.7,6.48,1.924,1.924,0,0,1,8.5,8.532,1.934,1.934,0,0,1,6.7,10.583Zm6.663,0a1.947,1.947,0,0,1-1.8-2.051,1.936,1.936,0,0,1,1.8-2.053,1.924,1.924,0,0,1,1.8,2.053A1.935,1.935,0,0,1,13.359,10.583Z" transform="translate(0)"/></g><rect width="24" height="24" transform="translate(1708 -140)" fill="none"/></g></svg>