<svg xmlns="http://www.w3.org/2000/svg" width="1066.727" height="123" viewBox="0 0 1066.727 123"><g transform="translate(-3353.533 633)"><g transform="translate(3353.533 -628.696)"><rect width="22.994" height="114.97" transform="translate(0 0.087)" fill="#1f1918"/><rect width="22.994" height="80.479" transform="translate(34.491 0.041)" fill="#1f1918"/><rect width="22.994" height="34.445" transform="translate(68.982 46.075)" fill="#1f1918"/><rect width="22.994" height="68.982" transform="translate(103.473 46.075)" fill="#1f1918"/><rect width="126.467" height="22.994" transform="translate(0 92.063)" fill="#1f1918"/><rect width="57.485" height="22.994" transform="translate(68.982 34.578)" fill="#1f1918"/><rect width="22.903" height="22.903" transform="translate(103.063 0)" fill="#1f1918"/><rect width="22.994" height="22.994" transform="translate(68.982 0.02)" fill="#1f1918"/></g><path d="M10.66,0V-114.8h24.6v91.84H91.84V0Zm93.48,0V-114.8h24.6V0Zm36.9-91.84V-114.8h98.4v22.96h-36.9V0h-24.6V-91.84ZM289.46,0V-114.8H348.5q17.22,0,27.06,8.364A26.577,26.577,0,0,1,385.4-85.28q0,12.3-9.02,19.352a32.932,32.932,0,0,1-9.02,4.428v.82a31,31,0,0,1,10.988,4.592Q389.5-48.708,389.5-33.62A30.341,30.341,0,0,1,378.43-9.43Q367.36,0,347.68,0Zm24.6-69.7h31.16q7.052,0,10.906-3.2a10.262,10.262,0,0,0,3.854-8.282,10.262,10.262,0,0,0-3.854-8.282q-3.854-3.2-10.906-3.2H314.06Zm0,47.56h31.98q9.02,0,13.53-3.608a11.585,11.585,0,0,0,4.51-9.512,11.585,11.585,0,0,0-4.51-9.512q-4.51-3.608-13.53-3.608H314.06ZM681.42,0V-114.8H713.4l45.1,81.18h1.64L758.5-47.56V-114.8h24.6V0H751.12l-45.1-81.18h-1.64l1.64,13.94V0ZM797.86-36.08h25.42a23.27,23.27,0,0,0,4.756,8.692q7.216,8.528,21.484,8.528,21.32,0,21.32-13.12a8.917,8.917,0,0,0-2.214-5.9,18,18,0,0,0-6.888-4.592,78.16,78.16,0,0,0-9.02-3.2q-4.346-1.23-11.234-3.034a14.774,14.774,0,0,1-1.558-.328q-.574-.164-1.476-.41t-1.558-.41q-34.112-8.2-34.112-32.964,0-14.76,12.054-25.01t32.226-10.25q26.24,0,39.688,17.712A50.035,50.035,0,0,1,894.62-82.82H869.2a16.763,16.763,0,0,0-3.772-6.56q-6.232-6.56-18.368-6.56-9.348,0-14.1,3.526T828.2-83.64q0,9.512,21.648,14.432l6.97,1.64q1.394.328,6.724,1.8a51.456,51.456,0,0,1,7.216,2.378q1.886.9,6.4,2.788a24.812,24.812,0,0,1,6.4,3.526q1.886,1.64,4.92,4.346a17.6,17.6,0,0,1,4.346,5.494,43.876,43.876,0,0,1,2.378,6.478A28.549,28.549,0,0,1,896.26-32.8q0,15.252-12.3,25.666T849.52,3.28q-29.192,0-42.8-19.68A50.474,50.474,0,0,1,797.86-36.08Z" transform="translate(3524 -514)" fill="#1f1918"/><path d="M61.5,23a38.5,38.5,0,0,0,0,77h141a38.5,38.5,0,0,0,0-77H61.5m0-23h141a61.5,61.5,0,0,1,0,123H61.5a61.5,61.5,0,0,1,0-123Z" transform="translate(3925 -633)" fill="#1f1918"/></g></svg>